<svg width="117" height="37" viewBox="0 0 117 37" fill="none" xmlns="http://www.w3.org/2000/svg">
<path d="M9.40331 5.51459C10.6146 5.51459 11.746 5.73267 12.7976 6.16883C13.8491 6.60499 14.7689 7.21604 15.5549 8.00199C16.3408 8.78793 16.9562 9.73366 17.4031 10.8392C17.8501 11.9447 18.0725 13.1668 18.0725 14.5055C18.0725 15.8442 17.8544 17.103 17.4182 18.2193C16.9821 19.3356 16.3667 20.2857 15.57 21.0716C14.7732 21.8576 13.821 22.4686 12.7177 22.9048C11.6122 23.3409 10.3793 23.559 9.02113 23.559C7.66299 23.559 6.42793 23.3409 5.32458 22.9048C4.21907 22.4686 3.27334 21.8576 2.4874 21.0716C1.70145 20.2857 1.09039 19.3335 0.654237 18.2193C0.218079 17.103 0 15.8658 0 14.5055V0H4.43067V7.93721C4.91865 7.19445 5.55562 6.60499 6.34372 6.16883C7.12967 5.73267 8.14881 5.51459 9.40331 5.51459ZM9.01897 19.0916C10.4203 19.0916 11.5366 18.6771 12.3657 17.8479C13.1949 17.0188 13.6094 15.9046 13.6094 14.5012C13.6094 13.0977 13.1949 12.0462 12.3657 11.2192C11.5366 10.3922 10.4224 9.97549 9.01897 9.97549C7.61549 9.97549 6.53373 10.3901 5.7046 11.2192C4.87547 12.0483 4.4609 13.143 4.4609 14.5012C4.4609 15.8593 4.87547 17.0188 5.7046 17.8479C6.53373 18.6771 7.63708 19.0916 9.01897 19.0916Z" fill="#41BECD"/>
<path d="M28.4852 5.51465C29.8239 5.51465 31.0503 5.73273 32.1666 6.16889C33.2829 6.60504 34.2329 7.2161 35.0189 8.00204C35.8048 8.78799 36.4159 9.73372 36.8521 10.8392C37.2882 11.9447 37.5063 13.1776 37.5063 14.5358C37.5063 15.8939 37.2882 17.129 36.8521 18.2323C36.4159 19.3378 35.8048 20.2836 35.0189 21.0695C34.2329 21.8555 33.2807 22.4665 32.1666 22.9027C31.0524 23.3388 29.8239 23.5569 28.4852 23.5569C27.1465 23.5569 25.8876 23.3388 24.7713 22.9027C23.655 22.4665 22.705 21.8555 21.919 21.0695C21.1331 20.2836 20.522 19.3378 20.0859 18.2323C19.6497 17.1268 19.4316 15.8961 19.4316 14.5358C19.4316 13.1755 19.6497 11.9447 20.0859 10.8392C20.522 9.73588 21.1331 8.78799 21.919 8.00204C22.705 7.2161 23.655 6.60504 24.7713 6.16889C25.8876 5.73273 27.1249 5.51465 28.4852 5.51465ZM28.4852 19.0917C29.867 19.0917 30.9704 18.6771 31.7995 17.848C32.6287 17.0189 33.0432 15.9155 33.0432 14.5336C33.0432 13.1517 32.6287 12.0484 31.7995 11.2192C30.9704 10.3901 29.8649 9.97555 28.4852 9.97555C27.1054 9.97555 25.9675 10.3901 25.1384 11.2192C24.3093 12.0484 23.8947 13.1539 23.8947 14.5336C23.8947 15.9133 24.3093 17.0189 25.1384 17.848C25.9675 18.6771 27.0817 19.0917 28.4852 19.0917Z" fill="#001D76"/>
<path d="M47.034 5.51465C48.3727 5.51465 49.5991 5.73273 50.7154 6.16889C51.8317 6.60504 52.7818 7.2161 53.5677 8.00204C54.3537 8.78799 54.9647 9.73372 55.4009 10.8392C55.837 11.9447 56.0551 13.1776 56.0551 14.5358C56.0551 15.8939 55.837 17.129 55.4009 18.2323C54.9647 19.3378 54.3537 20.2836 53.5677 21.0695C52.7818 21.8555 51.8296 22.4665 50.7154 22.9027C49.6013 23.3388 48.3727 23.5569 47.034 23.5569C45.6953 23.5569 44.4365 23.3388 43.3202 22.9027C42.2039 22.4665 41.2538 21.8555 40.4679 21.0695C39.6819 20.2836 39.0709 19.3378 38.6347 18.2323C38.1985 17.1268 37.9805 15.8961 37.9805 14.5358C37.9805 13.1755 38.1985 11.9447 38.6347 10.8392C39.0709 9.73588 39.6819 8.78799 40.4679 8.00204C41.2538 7.2161 42.2039 6.60504 43.3202 6.16889C44.4365 5.73273 45.6737 5.51465 47.034 5.51465ZM47.034 19.0917C48.4159 19.0917 49.5192 18.6771 50.3484 17.848C51.1775 17.0189 51.5921 15.9155 51.5921 14.5336C51.5921 13.1517 51.1775 12.0484 50.3484 11.2192C49.5192 10.3901 48.4137 9.97555 47.034 9.97555C45.6543 9.97555 44.5164 10.3901 43.6872 11.2192C42.8581 12.0484 42.4435 13.1539 42.4435 14.5336C42.4435 15.9133 42.8581 17.0189 43.6872 17.848C44.5164 18.6771 45.6305 19.0917 47.034 19.0917Z" fill="#001D76"/>
<path d="M66.876 10.7094C66.5349 10.5388 66.1635 10.3898 65.7597 10.2624C65.356 10.135 64.9349 10.0336 64.5009 9.96015C64.0648 9.88674 63.6567 9.84788 63.2745 9.84788C62.7844 9.84788 62.3763 9.92345 62.0481 10.0703C61.7177 10.2193 61.5536 10.474 61.5536 10.8346C61.5536 11.2168 61.7544 11.5256 62.1582 11.7588C62.562 11.992 63.0715 12.2273 63.6891 12.4605C64.3044 12.6937 64.9695 12.9377 65.682 13.1946C66.3945 13.4494 67.0574 13.7841 67.675 14.1987C68.2903 14.6132 68.7999 15.1293 69.2058 15.7446C69.6096 16.3622 69.8104 17.1265 69.8104 18.0399C69.8104 18.9532 69.6139 19.6917 69.2209 20.3826C68.828 21.0735 68.2903 21.6522 67.6123 22.1208C66.9322 22.5893 66.1398 22.9456 65.2372 23.1896C64.3347 23.4335 63.3717 23.5566 62.3525 23.5566C61.5234 23.5566 60.759 23.4832 60.0573 23.3342C59.3556 23.1852 58.7229 22.9887 58.1615 22.7448C57.598 22.5008 57.11 22.2352 56.6954 21.948C56.2809 21.6608 55.9462 21.3694 55.6914 21.0714L57.6995 17.4051C57.9542 17.6383 58.2932 17.8671 58.7186 18.0895C59.144 18.3119 59.5952 18.5084 60.0724 18.679C60.5496 18.8496 61.0397 18.9813 61.5385 19.0763C62.0373 19.1713 62.4994 19.2188 62.9247 19.2188C63.4559 19.2188 63.8964 19.1281 64.2483 18.9489C64.5981 18.7697 64.7751 18.4652 64.7751 18.0399C64.7751 17.6361 64.5722 17.3122 64.1706 17.0682C63.7668 16.8242 63.2572 16.591 62.6397 16.3665C62.0222 16.1441 61.3593 15.9044 60.6468 15.6496C59.9342 15.3949 59.2714 15.0602 58.6538 14.6456C58.0363 14.231 57.5267 13.7172 57.1229 13.0996C56.7192 12.4843 56.5184 11.7091 56.5184 10.772C56.5184 9.83492 56.7041 9.10511 57.0754 8.4444C57.4468 7.78584 57.9521 7.23956 58.589 6.80341C59.226 6.36725 59.9645 6.04337 60.8044 5.83177C61.6443 5.62017 62.5404 5.51221 63.4969 5.51221C65.0256 5.51221 66.3751 5.75188 67.5454 6.22906C68.7135 6.70624 69.575 7.25468 70.1278 7.87005L67.6426 11.2492C67.472 11.057 67.2172 10.8778 66.8782 10.7072L66.876 10.7094Z" fill="#001D76"/>
<path d="M80.0692 5.83175V9.56069H76.2755V16.6364C76.2755 17.5497 76.5238 18.2579 77.0247 18.7567C77.5235 19.2555 78.2295 19.506 79.145 19.506H81.7901V23.2349H79.145C78.0827 23.2349 77.1046 23.0924 76.2129 22.8052C75.3211 22.518 74.5503 22.0927 73.9025 21.5313C73.2548 20.9677 72.7495 20.2768 72.3889 19.4585C72.0283 18.6401 71.847 17.7009 71.847 16.6385V9.56285H70.3809V5.83391H71.847V2.74194H76.2776V5.83391H80.0713L80.0692 5.83175Z" fill="#001D76"/>
<path d="M98.9885 14.5333C98.9885 14.9587 98.9561 15.3949 98.8935 15.8396H85.6339C85.8671 16.8588 86.3615 17.6555 87.1151 18.2299C87.8686 18.8042 88.8208 19.0914 89.9674 19.0914C90.9023 19.0914 91.7098 18.8841 92.39 18.4696C93.0701 18.055 93.5797 17.4979 93.9209 16.7962L97.9694 18.964C97.246 20.4085 96.201 21.5356 94.8299 22.3432C93.4588 23.1507 91.8394 23.5545 89.9695 23.5545C88.6092 23.5545 87.372 23.3364 86.2557 22.9002C85.1394 22.4641 84.1894 21.853 83.4034 21.0671C82.6175 20.2811 82.0064 19.3354 81.5703 18.2299C81.1341 17.1244 80.916 15.8936 80.916 14.5333C80.916 13.173 81.1341 11.9423 81.5703 10.8368C82.0064 9.73344 82.6175 8.78555 83.4034 7.9996C84.1894 7.21365 85.1394 6.6026 86.2557 6.16644C87.372 5.73029 88.6092 5.51221 89.9695 5.51221C91.3298 5.51221 92.5347 5.73029 93.651 6.16644C94.7673 6.6026 95.7173 7.21365 96.5033 7.9996C97.2892 8.78555 97.9003 9.73128 98.3364 10.8368C98.7726 11.9423 98.9907 13.1752 98.9907 14.5333H98.9885ZM94.3657 13.1622C94.1519 12.0783 93.6639 11.219 92.8996 10.5798C92.1352 9.94288 91.1571 9.62332 89.9674 9.62332C88.7777 9.62332 87.7952 9.94288 87.0201 10.5798C86.2449 11.2168 85.7505 12.0783 85.5389 13.1622H94.3678H94.3657Z" fill="#001D76"/>
<path d="M109.084 5.51465V9.97771H108.509C107.128 9.97771 106.018 10.3923 105.178 11.2214C104.338 12.0505 103.919 13.156 103.919 14.5358V23.2373H99.4883V14.5358C99.4883 13.1755 99.7064 11.9447 100.143 10.8392C100.579 9.73588 101.19 8.78799 101.976 8.00204C102.762 7.2161 103.707 6.60504 104.813 6.16889C105.918 5.73273 107.151 5.51465 108.509 5.51465H109.084Z" fill="#001D76"/>
<path d="M81.8074 25.7288C82.4444 25.7288 83.0425 25.8454 83.5996 26.0785C84.1566 26.3117 84.6381 26.6637 85.0441 27.1344C85.4478 27.6051 85.7717 28.1946 86.0092 28.8963C86.2489 29.6002 86.3677 30.4164 86.3677 31.347V36.8054H83.5801V31.347C83.5801 30.4963 83.4117 29.814 83.0727 29.2958C82.7337 28.7775 82.1853 28.5184 81.4296 28.5184C80.6739 28.5184 80.1448 28.7775 79.8059 29.2958C79.4669 29.814 79.2984 30.4984 79.2984 31.347V36.8054H76.5304V31.347C76.5304 30.4963 76.3576 29.814 76.0121 29.2958C75.6667 28.7775 75.1226 28.5184 74.3776 28.5184C73.6327 28.5184 73.0735 28.7775 72.7345 29.2958C72.3955 29.814 72.2271 30.4984 72.2271 31.347V36.8054H69.459V25.9296H72.2271V27.2445C72.4667 26.7803 72.8187 26.4111 73.2829 26.139C73.7471 25.8669 74.3193 25.7309 74.9952 25.7309C75.779 25.7309 76.4656 25.9101 77.0572 26.2686C77.6488 26.627 78.1238 27.1452 78.4823 27.821C79.1192 26.4262 80.2291 25.7288 81.8096 25.7288H81.8074Z" fill="#A801A7"/>
<path d="M92.5811 25.7287C93.4189 25.7287 94.1854 25.8648 94.8807 26.1368C95.5781 26.4089 96.1719 26.791 96.6642 27.2812C97.1543 27.7735 97.5365 28.3629 97.8085 29.0539C98.0806 29.7448 98.2166 30.5157 98.2166 31.3642V36.8011H95.4485V35.4861C95.1571 35.9504 94.7619 36.3196 94.2631 36.5916C93.7644 36.8637 93.1253 36.9997 92.3415 36.9997C91.5577 36.9997 90.8775 36.8637 90.219 36.5916C89.5604 36.3196 88.9882 35.9374 88.4959 35.4451C88.0036 34.955 87.6193 34.3634 87.3408 33.6724C87.0622 32.9815 86.9219 32.2128 86.9219 31.3621C86.9219 30.5113 87.0579 29.7427 87.33 29.0517C87.602 28.3608 87.9842 27.7713 88.4743 27.279C88.9645 26.7867 89.5604 26.4067 90.2578 26.1347C90.9553 25.8626 91.7282 25.7266 92.579 25.7266L92.5811 25.7287ZM92.5811 34.2144C93.4448 34.2144 94.1336 33.9553 94.6518 33.4371C95.17 32.9188 95.4291 32.2279 95.4291 31.3664C95.4291 30.5049 95.17 29.8118 94.6518 29.2957C94.1336 28.7775 93.4426 28.5184 92.5811 28.5184C91.7196 28.5184 91.0071 28.7775 90.4889 29.2957C89.9707 29.8139 89.7116 30.5049 89.7116 31.3664C89.7116 32.2279 89.9707 32.9188 90.4889 33.4371C91.0071 33.9553 91.7045 34.2144 92.5811 34.2144Z" fill="#001D76"/>
<path d="M104.674 25.9276V28.2573H102.303V32.6794C102.303 33.2494 102.458 33.692 102.771 34.003C103.082 34.316 103.525 34.4715 104.095 34.4715H105.749V36.8013H104.095C103.43 36.8013 102.821 36.7106 102.262 36.5314C101.705 36.3522 101.223 36.0866 100.817 35.7346C100.411 35.3827 100.096 34.9508 99.8717 34.4391C99.645 33.9274 99.5327 33.3401 99.5327 32.6772V28.2552H98.6172V25.9254H99.5327V23.9929H102.301V25.9254H104.672L104.674 25.9276Z" fill="#001D76"/>
<path d="M111.825 25.7291C112.475 25.7291 113.067 25.8586 113.598 26.1177C114.129 26.3768 114.581 26.7482 114.952 27.234C115.323 27.7199 115.613 28.3072 115.818 28.9959C116.023 29.6869 116.127 30.4707 116.127 31.3473V36.8058H113.358V31.3473C113.358 30.4966 113.186 29.8143 112.84 29.2961C112.495 28.7779 111.951 28.5188 111.206 28.5188C110.461 28.5188 109.902 28.7779 109.563 29.2961C109.224 29.8143 109.055 30.4987 109.055 31.3473V36.8058H106.287V22.2852H109.055V27.2448C109.295 26.7806 109.647 26.4114 110.111 26.1393C110.575 25.8673 111.147 25.7312 111.823 25.7312L111.825 25.7291Z" fill="#001D76"/>
<path fill-rule="evenodd" clip-rule="evenodd" d="M22.0747 23.2912C21.9171 23.1789 21.7638 23.0602 21.6126 22.9393C21.5328 22.8745 21.4162 22.8874 21.3514 22.9673L19.2893 25.5281C19.2246 25.608 19.2375 25.7246 19.3174 25.7894C21.4334 27.4952 23.9726 28.5683 26.6695 28.9008C27.2676 28.9742 27.87 29.0109 28.4724 29.0109C29.0748 29.0109 29.6772 28.9742 30.2753 28.9008C32.9722 28.5683 35.5114 27.4952 37.6274 25.7894C37.7073 25.7246 37.7203 25.608 37.6555 25.5281L35.5935 22.9673C35.5287 22.8874 35.4121 22.8745 35.3322 22.9393C35.181 23.0602 35.0277 23.1789 34.8701 23.2912C33.3803 24.3665 31.6486 25.0445 29.8262 25.269C29.3771 25.3252 28.9237 25.3532 28.4724 25.3532C28.0211 25.3532 27.5677 25.3252 27.1186 25.269C25.2941 25.0445 23.5646 24.3665 22.0747 23.2912Z" fill="#A801A7"/>
<path fill-rule="evenodd" clip-rule="evenodd" d="M53.3604 5.81688C53.518 5.92916 53.6713 6.04792 53.8224 6.16883C53.9023 6.23361 54.0189 6.22065 54.0837 6.14076L56.1457 3.57995C56.2105 3.50006 56.1975 3.38347 56.1176 3.31869C54.0016 1.61292 51.4624 0.539803 48.7656 0.207287C48.1675 0.133874 47.5651 0.097168 46.9627 0.097168C46.3602 0.097168 45.7578 0.133874 45.1597 0.207287C42.4629 0.539803 39.9237 1.61292 37.8077 3.31869C37.7278 3.38347 37.7148 3.50006 37.7796 3.57995L39.8416 6.14076C39.9064 6.22065 40.023 6.23361 40.1029 6.16883C40.254 6.04792 40.4073 5.92916 40.5649 5.81688C42.0548 4.7416 43.7865 4.06361 45.6088 3.83906C46.0579 3.78292 46.5114 3.75485 46.9627 3.75485C47.4139 3.75485 47.8674 3.78292 48.3165 3.83906C50.141 4.06361 51.8705 4.7416 53.3604 5.81688Z" fill="#41BECD"/>
</svg>
